<mxfile host="app.diagrams.net" modified="2022-12-07T18:23:40.521Z" agent="5.0 (Windows NT 10.0; Win64; x64) AppleWebKit/537.36 (KHTML, like Gecko) Chrome/107.0.0.0 Safari/537.36" etag="eRXYXgJkKENM6Sp4QY_g" version="20.5.1" type="github">
  <diagram id="hOrNOuC2hKsfHkcB-1-s" name="Halaman-1">
    <mxGraphModel dx="868" dy="393" grid="1" gridSize="10" guides="1" tooltips="1" connect="1" arrows="1" fold="1" page="1" pageScale="1" pageWidth="850" pageHeight="1100" math="0" shadow="0">
      <root>
        <mxCell id="0" />
        <mxCell id="1" parent="0" />
        <mxCell id="JOX2pZlNejwBpoRSoEd3-20" value="" style="shape=umlFrame;whiteSpace=wrap;html=1;width=40;height=20;" parent="1" vertex="1">
          <mxGeometry x="517.5" y="60" width="55" height="35" as="geometry" />
        </mxCell>
        <mxCell id="JOX2pZlNejwBpoRSoEd3-21" value="&lt;u&gt;&lt;i&gt;login : form&lt;/i&gt;&lt;/u&gt;" style="text;html=1;align=center;verticalAlign=middle;resizable=0;points=[];autosize=1;strokeColor=none;fillColor=none;" parent="1" vertex="1">
          <mxGeometry x="190" y="110" width="80" height="30" as="geometry" />
        </mxCell>
        <mxCell id="JOX2pZlNejwBpoRSoEd3-22" value="&lt;u&gt;&lt;i&gt;login : control&lt;/i&gt;&lt;/u&gt;" style="text;html=1;align=center;verticalAlign=middle;resizable=0;points=[];autosize=1;strokeColor=none;fillColor=none;" parent="1" vertex="1">
          <mxGeometry x="335" y="110" width="90" height="30" as="geometry" />
        </mxCell>
        <mxCell id="JOX2pZlNejwBpoRSoEd3-23" value="&lt;u&gt;:&lt;i&gt;&amp;nbsp;user&lt;/i&gt;&lt;/u&gt;" style="text;html=1;align=center;verticalAlign=middle;resizable=0;points=[];autosize=1;strokeColor=none;fillColor=none;" parent="1" vertex="1">
          <mxGeometry x="520" y="110" width="50" height="30" as="geometry" />
        </mxCell>
        <mxCell id="JOX2pZlNejwBpoRSoEd3-24" value="" style="shape=umlLifeline;participant=umlActor;perimeter=lifelinePerimeter;whiteSpace=wrap;html=1;container=1;collapsible=0;recursiveResize=0;verticalAlign=top;spacingTop=36;outlineConnect=0;" parent="1" vertex="1">
          <mxGeometry x="70" y="55" width="20" height="300" as="geometry" />
        </mxCell>
        <mxCell id="JOX2pZlNejwBpoRSoEd3-25" value="" style="shape=umlLifeline;participant=umlBoundary;perimeter=lifelinePerimeter;whiteSpace=wrap;html=1;container=1;collapsible=0;recursiveResize=0;verticalAlign=top;spacingTop=36;outlineConnect=0;" parent="1" vertex="1">
          <mxGeometry x="205" y="55" width="50" height="450" as="geometry" />
        </mxCell>
        <mxCell id="JOX2pZlNejwBpoRSoEd3-30" value="" style="html=1;points=[];perimeter=orthogonalPerimeter;" parent="JOX2pZlNejwBpoRSoEd3-25" vertex="1">
          <mxGeometry x="20" y="300" width="10" height="150" as="geometry" />
        </mxCell>
        <mxCell id="JOX2pZlNejwBpoRSoEd3-26" value="" style="shape=umlLifeline;participant=umlControl;perimeter=lifelinePerimeter;whiteSpace=wrap;html=1;container=1;collapsible=0;recursiveResize=0;verticalAlign=top;spacingTop=36;outlineConnect=0;" parent="1" vertex="1">
          <mxGeometry x="360" y="55" width="40" height="105" as="geometry" />
        </mxCell>
        <mxCell id="JOX2pZlNejwBpoRSoEd3-28" value="&lt;u&gt;&lt;i&gt;: user&lt;/i&gt;&lt;/u&gt;" style="text;html=1;align=center;verticalAlign=middle;resizable=0;points=[];autosize=1;strokeColor=none;fillColor=none;" parent="1" vertex="1">
          <mxGeometry x="55" y="110" width="50" height="30" as="geometry" />
        </mxCell>
        <mxCell id="JOX2pZlNejwBpoRSoEd3-29" value="" style="html=1;points=[];perimeter=orthogonalPerimeter;" parent="1" vertex="1">
          <mxGeometry x="75" y="355" width="10" height="175" as="geometry" />
        </mxCell>
        <mxCell id="JOX2pZlNejwBpoRSoEd3-32" value="" style="endArrow=open;endFill=1;endSize=12;html=1;rounded=0;" parent="1" edge="1">
          <mxGeometry width="160" relative="1" as="geometry">
            <mxPoint x="75" y="354" as="sourcePoint" />
            <mxPoint x="235" y="354" as="targetPoint" />
          </mxGeometry>
        </mxCell>
        <mxCell id="JOX2pZlNejwBpoRSoEd3-33" value="masukkan email dan password" style="text;html=1;align=center;verticalAlign=middle;resizable=0;points=[];autosize=1;strokeColor=none;fillColor=none;" parent="1" vertex="1">
          <mxGeometry x="60" y="325" width="190" height="30" as="geometry" />
        </mxCell>
        <mxCell id="JOX2pZlNejwBpoRSoEd3-35" value="" style="shape=partialRectangle;fillColor=none;align=left;verticalAlign=middle;strokeColor=none;spacingLeft=34;rotatable=0;points=[[0,0.5],[1,0.5]];portConstraint=eastwest;dropTarget=0;" parent="1" vertex="1">
          <mxGeometry x="350" y="200" width="90" height="30" as="geometry" />
        </mxCell>
        <mxCell id="JOX2pZlNejwBpoRSoEd3-36" value="" style="shape=partialRectangle;top=0;left=0;bottom=0;fillColor=none;stokeWidth=1;dashed=1;align=left;verticalAlign=middle;spacingLeft=4;spacingRight=4;overflow=hidden;rotatable=0;points=[];portConstraint=eastwest;part=1;" parent="JOX2pZlNejwBpoRSoEd3-35" vertex="1" connectable="0">
          <mxGeometry width="30" height="30" as="geometry" />
        </mxCell>
        <mxCell id="JOX2pZlNejwBpoRSoEd3-37" value="" style="html=1;points=[];perimeter=orthogonalPerimeter;" parent="1" vertex="1">
          <mxGeometry x="375" y="160" width="10" height="40" as="geometry" />
        </mxCell>
        <mxCell id="JOX2pZlNejwBpoRSoEd3-38" value="cek format ()" style="edgeStyle=orthogonalEdgeStyle;html=1;align=left;spacingLeft=2;endArrow=block;rounded=0;entryX=1;entryY=0;" parent="1" target="JOX2pZlNejwBpoRSoEd3-37" edge="1">
          <mxGeometry x="0.8065" y="-10" relative="1" as="geometry">
            <mxPoint x="450" y="130" as="sourcePoint" />
            <Array as="points">
              <mxPoint x="480" y="130" />
            </Array>
            <mxPoint as="offset" />
          </mxGeometry>
        </mxCell>
        <mxCell id="JOX2pZlNejwBpoRSoEd3-39" value="" style="html=1;points=[];perimeter=orthogonalPerimeter;" parent="1" vertex="1">
          <mxGeometry x="375" y="230" width="10" height="40" as="geometry" />
        </mxCell>
        <mxCell id="JOX2pZlNejwBpoRSoEd3-40" value="" style="shape=partialRectangle;top=0;left=0;bottom=0;fillColor=none;stokeWidth=1;dashed=1;align=left;verticalAlign=middle;spacingLeft=4;spacingRight=4;overflow=hidden;rotatable=0;points=[];portConstraint=eastwest;part=1;" parent="1" vertex="1" connectable="0">
          <mxGeometry x="350" y="270" width="30" height="30" as="geometry" />
        </mxCell>
        <mxCell id="JOX2pZlNejwBpoRSoEd3-44" value="" style="shape=partialRectangle;fillColor=none;align=left;verticalAlign=middle;strokeColor=none;spacingLeft=34;rotatable=0;points=[[0,0.5],[1,0.5]];portConstraint=eastwest;dropTarget=0;" parent="1" vertex="1">
          <mxGeometry x="517.5" y="100" width="90" height="130" as="geometry" />
        </mxCell>
        <mxCell id="JOX2pZlNejwBpoRSoEd3-45" value="" style="shape=partialRectangle;top=0;left=0;bottom=0;fillColor=none;stokeWidth=1;dashed=1;align=left;verticalAlign=middle;spacingLeft=4;spacingRight=4;overflow=hidden;rotatable=0;points=[];portConstraint=eastwest;part=1;" parent="JOX2pZlNejwBpoRSoEd3-44" vertex="1" connectable="0">
          <mxGeometry width="30" height="130" as="geometry" />
        </mxCell>
        <mxCell id="JOX2pZlNejwBpoRSoEd3-46" value="" style="html=1;points=[];perimeter=orthogonalPerimeter;" parent="1" vertex="1">
          <mxGeometry x="542.5" y="230" width="10" height="20" as="geometry" />
        </mxCell>
        <mxCell id="JOX2pZlNejwBpoRSoEd3-47" value="cek format ()" style="html=1;verticalAlign=bottom;endArrow=block;rounded=0;exitX=0.38;exitY=1.007;exitDx=0;exitDy=0;exitPerimeter=0;entryX=0.277;entryY=1;entryDx=0;entryDy=0;entryPerimeter=0;" parent="1" source="JOX2pZlNejwBpoRSoEd3-35" target="JOX2pZlNejwBpoRSoEd3-44" edge="1">
          <mxGeometry width="80" relative="1" as="geometry">
            <mxPoint x="460" y="250" as="sourcePoint" />
            <mxPoint x="540" y="230" as="targetPoint" />
          </mxGeometry>
        </mxCell>
        <mxCell id="JOX2pZlNejwBpoRSoEd3-48" value="" style="shape=partialRectangle;fillColor=none;align=left;verticalAlign=middle;strokeColor=none;spacingLeft=34;rotatable=0;points=[[0,0.5],[1,0.5]];portConstraint=eastwest;dropTarget=0;" parent="1" vertex="1">
          <mxGeometry x="517.5" y="250" width="90" height="50" as="geometry" />
        </mxCell>
        <mxCell id="JOX2pZlNejwBpoRSoEd3-49" value="" style="shape=partialRectangle;top=0;left=0;bottom=0;fillColor=none;stokeWidth=1;dashed=1;align=left;verticalAlign=middle;spacingLeft=4;spacingRight=4;overflow=hidden;rotatable=0;points=[];portConstraint=eastwest;part=1;" parent="JOX2pZlNejwBpoRSoEd3-48" vertex="1" connectable="0">
          <mxGeometry width="30" height="50" as="geometry" />
        </mxCell>
        <mxCell id="JOX2pZlNejwBpoRSoEd3-50" value="" style="html=1;points=[];perimeter=orthogonalPerimeter;" parent="1" vertex="1">
          <mxGeometry x="375" y="300" width="10" height="40" as="geometry" />
        </mxCell>
        <mxCell id="JOX2pZlNejwBpoRSoEd3-51" value="" style="shape=partialRectangle;top=0;left=0;bottom=0;fillColor=none;stokeWidth=1;dashed=1;align=left;verticalAlign=middle;spacingLeft=4;spacingRight=4;overflow=hidden;rotatable=0;points=[];portConstraint=eastwest;part=1;" parent="1" vertex="1" connectable="0">
          <mxGeometry x="350" y="340" width="30" height="60" as="geometry" />
        </mxCell>
        <mxCell id="JOX2pZlNejwBpoRSoEd3-57" value="" style="html=1;points=[];perimeter=orthogonalPerimeter;" parent="1" vertex="1">
          <mxGeometry x="542.5" y="300" width="10" height="40" as="geometry" />
        </mxCell>
        <mxCell id="JOX2pZlNejwBpoRSoEd3-58" value="" style="shape=partialRectangle;top=0;left=0;bottom=0;fillColor=none;stokeWidth=1;dashed=1;align=left;verticalAlign=middle;spacingLeft=4;spacingRight=4;overflow=hidden;rotatable=0;points=[];portConstraint=eastwest;part=1;" parent="1" vertex="1" connectable="0">
          <mxGeometry x="517.5" y="340" width="30" height="250" as="geometry" />
        </mxCell>
        <mxCell id="JOX2pZlNejwBpoRSoEd3-59" value="cek &lt;i&gt;email &lt;/i&gt;dan &lt;i&gt;password ()&lt;/i&gt;" style="html=1;verticalAlign=bottom;endArrow=block;rounded=0;exitX=0.38;exitY=1.007;exitDx=0;exitDy=0;exitPerimeter=0;entryX=0.277;entryY=1;entryDx=0;entryDy=0;entryPerimeter=0;" parent="1" edge="1">
          <mxGeometry width="80" relative="1" as="geometry">
            <mxPoint x="384.2699999999998" y="300.2099999999999" as="sourcePoint" />
            <mxPoint x="542.4999999999999" y="300.0000000000001" as="targetPoint" />
          </mxGeometry>
        </mxCell>
        <mxCell id="JOX2pZlNejwBpoRSoEd3-60" value="" style="html=1;points=[];perimeter=orthogonalPerimeter;" parent="1" vertex="1">
          <mxGeometry x="375" y="400" width="10" height="40" as="geometry" />
        </mxCell>
        <mxCell id="JOX2pZlNejwBpoRSoEd3-61" value="" style="shape=partialRectangle;top=0;left=0;bottom=0;fillColor=none;stokeWidth=1;dashed=1;align=left;verticalAlign=middle;spacingLeft=4;spacingRight=4;overflow=hidden;rotatable=0;points=[];portConstraint=eastwest;part=1;" parent="1" vertex="1" connectable="0">
          <mxGeometry x="350" y="440" width="30" height="150" as="geometry" />
        </mxCell>
        <mxCell id="JOX2pZlNejwBpoRSoEd3-62" value="&lt;i&gt;Get&lt;/i&gt;&amp;nbsp;&lt;i&gt;email &lt;/i&gt;dan &lt;i&gt;password ()&lt;/i&gt;" style="html=1;verticalAlign=bottom;endArrow=block;rounded=0;entryX=0.993;entryY=0.301;entryDx=0;entryDy=0;entryPerimeter=0;" parent="1" target="JOX2pZlNejwBpoRSoEd3-30" edge="1">
          <mxGeometry width="80" relative="1" as="geometry">
            <mxPoint x="375" y="400" as="sourcePoint" />
            <mxPoint x="240" y="400.0000000000001" as="targetPoint" />
          </mxGeometry>
        </mxCell>
        <mxCell id="JOX2pZlNejwBpoRSoEd3-63" value="" style="shape=partialRectangle;top=0;left=0;bottom=0;fillColor=none;stokeWidth=1;dashed=1;align=left;verticalAlign=middle;spacingLeft=4;spacingRight=4;overflow=hidden;rotatable=0;points=[];portConstraint=eastwest;part=1;" parent="1" vertex="1" connectable="0">
          <mxGeometry x="45" y="530" width="35" height="60" as="geometry" />
        </mxCell>
        <mxCell id="JOX2pZlNejwBpoRSoEd3-64" value="" style="shape=partialRectangle;top=0;left=0;bottom=0;fillColor=none;stokeWidth=1;dashed=1;align=left;verticalAlign=middle;spacingLeft=4;spacingRight=4;overflow=hidden;rotatable=0;points=[];portConstraint=eastwest;part=1;" parent="1" vertex="1" connectable="0">
          <mxGeometry x="200" y="505" width="30" height="85" as="geometry" />
        </mxCell>
      </root>
    </mxGraphModel>
  </diagram>
</mxfile>
